<svg id="Layer_1" data-name="Layer 1" xmlns="http://www.w3.org/2000/svg" viewBox="0 0 320 80"><defs><style>.cls-1{fill:#f04e98;}.cls-1,.cls-3,.cls-4{fill-rule:evenodd;}.cls-2{fill:#00bfb3;}.cls-3{fill:#07c;}.cls-4{fill:#fec514;}</style></defs><title>Elastic Stack Color Lockup</title><path d="M98.61,49.56A10,10,0,0,1,91,46.74,10.73,10.73,0,0,1,88.31,39c0-3.38.85-6.05,2.53-8a8.75,8.75,0,0,1,7-2.91,8.56,8.56,0,0,1,6.49,2.49,9.54,9.54,0,0,1,2.38,6.87v2.38H92.85a6.82,6.82,0,0,0,1.63,4.64,5.69,5.69,0,0,0,4.33,1.62,15.36,15.36,0,0,0,3.42-.35,17.56,17.56,0,0,0,3.41-1.15v3.58a13.74,13.74,0,0,1-3.26,1.09A20.24,20.24,0,0,1,98.61,49.56ZM97.8,31.41a4.44,4.44,0,0,0-3.37,1.33,6.35,6.35,0,0,0-1.5,3.88h9.41a5.77,5.77,0,0,0-1.24-3.89A4.24,4.24,0,0,0,97.8,31.41Z"/><path d="M116.08,49.18h-4.4V20h4.4Z"/><path d="M135.36,49.18l-.89-2.88h-.14a8.45,8.45,0,0,1-3,2.57,9.53,9.53,0,0,1-3.9.69,6.63,6.63,0,0,1-4.78-1.65,6.19,6.19,0,0,1-1.71-4.67,5.48,5.48,0,0,1,2.38-4.84q2.39-1.63,7.26-1.78l3.58-.11V35.4a4.2,4.2,0,0,0-.93-3,3.78,3.78,0,0,0-2.88-1,10,10,0,0,0-3.05.46A25,25,0,0,0,124.46,33L123,29.87a15.24,15.24,0,0,1,3.69-1.34,16.8,16.8,0,0,1,3.79-.46q4,0,6,1.73c1.34,1.15,2,2.95,2,5.41v14Zm-6.57-3a5.45,5.45,0,0,0,3.86-1.34,4.84,4.84,0,0,0,1.45-3.76v-1.8l-2.66.12a9,9,0,0,0-4.53,1,3.17,3.17,0,0,0-1.42,2.84,2.76,2.76,0,0,0,.83,2.14A3.51,3.51,0,0,0,128.79,46.18Z"/><path d="M158.59,43.28a5.44,5.44,0,0,1-2.21,4.66A10.62,10.62,0,0,1,150,49.56a15,15,0,0,1-6.66-1.26V44.5a16.43,16.43,0,0,0,6.81,1.68q4.06,0,4.07-2.45a2,2,0,0,0-.45-1.32,5.33,5.33,0,0,0-1.48-1.08,26,26,0,0,0-2.87-1.28,13.24,13.24,0,0,1-4.85-2.77,5.17,5.17,0,0,1-1.27-3.6,4.74,4.74,0,0,1,2.15-4.14,10.2,10.2,0,0,1,5.84-1.47,16.48,16.48,0,0,1,6.92,1.48l-1.42,3.32a15.52,15.52,0,0,0-5.65-1.39c-2.32,0-3.49.67-3.49,2a2,2,0,0,0,.91,1.65,20.21,20.21,0,0,0,4,1.86,17.91,17.91,0,0,1,3.73,1.82A5.43,5.43,0,0,1,158,40.7,5.58,5.58,0,0,1,158.59,43.28Z"/><path d="M171.08,46a10.66,10.66,0,0,0,3.22-.51v3.32a9,9,0,0,1-1.88.53,12.5,12.5,0,0,1-2.39.22q-6.27,0-6.27-6.6V31.78h-2.83v-2l3-1.61,1.5-4.39h2.72v4.62h5.9v3.33h-5.9v11.1a3.13,3.13,0,0,0,.79,2.36A3,3,0,0,0,171.08,46Z"/><path d="M178.18,23a2.45,2.45,0,0,1,.65-1.82,2.54,2.54,0,0,1,1.85-.63,2.47,2.47,0,0,1,1.8.63,2.41,2.41,0,0,1,.65,1.82,2.36,2.36,0,0,1-.65,1.77,2.4,2.4,0,0,1-1.8.65,2.47,2.47,0,0,1-1.85-.65A2.39,2.39,0,0,1,178.18,23Zm4.67,26.23h-4.41V28.45h4.41Z"/><path d="M197.51,49.56c-3.13,0-5.52-.92-7.15-2.75s-2.45-4.46-2.45-7.88.86-6.17,2.56-8,4.17-2.81,7.4-2.81a13.86,13.86,0,0,1,5.9,1.22l-1.33,3.54a13.41,13.41,0,0,0-4.61-1.08q-5.39,0-5.38,7.14a8.59,8.59,0,0,0,1.34,5.24,4.63,4.63,0,0,0,3.93,1.75,11.23,11.23,0,0,0,5.57-1.46v3.84a8.57,8.57,0,0,1-2.52,1A15.21,15.21,0,0,1,197.51,49.56Z"/><path d="M232.07,43.28a5.44,5.44,0,0,1-2.21,4.66,10.62,10.62,0,0,1-6.34,1.62,15,15,0,0,1-6.66-1.26V44.5a16.43,16.43,0,0,0,6.81,1.68q4.07,0,4.07-2.45a2,2,0,0,0-.45-1.32,5.33,5.33,0,0,0-1.48-1.08,26,26,0,0,0-2.87-1.28,13.24,13.24,0,0,1-4.85-2.77,5.17,5.17,0,0,1-1.26-3.6A4.73,4.73,0,0,1,219,29.54a10.2,10.2,0,0,1,5.84-1.47,16.48,16.48,0,0,1,6.92,1.48l-1.42,3.32a15.52,15.52,0,0,0-5.65-1.39c-2.32,0-3.49.67-3.49,2a2,2,0,0,0,.91,1.65,20.21,20.21,0,0,0,4,1.86,17.91,17.91,0,0,1,3.73,1.82,5.43,5.43,0,0,1,1.73,1.9A5.58,5.58,0,0,1,232.07,43.28Z"/><path d="M244.56,46a10.61,10.61,0,0,0,3.22-.51v3.32a8.82,8.82,0,0,1-1.88.53,12.5,12.5,0,0,1-2.39.22q-6.27,0-6.27-6.6V31.78h-2.83v-2l3-1.61,1.5-4.39h2.72v4.62h5.91v3.33h-5.91v11.1a3.09,3.09,0,0,0,.8,2.36A2.92,2.92,0,0,0,244.56,46Z"/><path d="M264.9,49.18,264,46.3h-.15a8.45,8.45,0,0,1-3,2.57,9.46,9.46,0,0,1-3.9.69,6.59,6.59,0,0,1-4.77-1.65,6.16,6.16,0,0,1-1.72-4.67,5.5,5.5,0,0,1,2.38-4.84q2.39-1.63,7.26-1.78l3.58-.11V35.4a4.2,4.2,0,0,0-.93-3,3.77,3.77,0,0,0-2.87-1,10,10,0,0,0-3.06.46A24.88,24.88,0,0,0,254,33l-1.43-3.15a15.56,15.56,0,0,1,3.69-1.34,16.87,16.87,0,0,1,3.79-.46q4,0,6,1.73t2,5.41v14Zm-6.56-3a5.42,5.42,0,0,0,3.85-1.34,4.84,4.84,0,0,0,1.45-3.76v-1.8L261,39.4a9.08,9.08,0,0,0-4.53,1A3.16,3.16,0,0,0,255,43.28a2.75,2.75,0,0,0,.82,2.14A3.54,3.54,0,0,0,258.34,46.18Z"/><path d="M282.56,49.56q-4.71,0-7.15-2.75T273,38.93c0-3.49.86-6.17,2.56-8s4.17-2.81,7.4-2.81a13.91,13.91,0,0,1,5.91,1.22l-1.34,3.54a13.41,13.41,0,0,0-4.61-1.08q-5.38,0-5.38,7.14a8.59,8.59,0,0,0,1.34,5.24,4.63,4.63,0,0,0,3.93,1.75,11.23,11.23,0,0,0,5.57-1.46v3.84a8.57,8.57,0,0,1-2.52,1A15.21,15.21,0,0,1,282.56,49.56Z"/><path d="M297.47,38.23,300,35.12l6.27-6.67h5.08L303,37.35l8.87,11.83h-5.17L300,40.09l-2.42,2v7.1h-4.37V20h4.37V34.24l-.22,4Z"/><path class="cls-1" d="M72,26V13a5,5,0,0,0-5-5H13a5,5,0,0,0-5,5V26Z"/><rect class="cls-2" x="8" y="32" width="64" height="16"/><path class="cls-3" d="M37,54H8V67a5,5,0,0,0,5,5H37Z"/><path class="cls-4" d="M43,54V72H67a5,5,0,0,0,5-5V54Z"/></svg>